<svg xmlns="http://www.w3.org/2000/svg" xmlns:xlink="http://www.w3.org/1999/xlink" width="500" zoomAndPan="magnify" viewBox="0 0 375 374.999991" height="500" preserveAspectRatio="xMidYMid meet" version="1.0"><defs><g/></defs><g fill="#000000" fill-opacity="1"><g transform="translate(72.408496, 202.402185)"><g><path d="M 1.421875 5.789062 C 1.554688 7.191406 2.527344 7.1875 3.417969 7.28125 L 4.03125 7.226562 C 4.324219 10.378906 5.21875 20.902344 6.039062 24.007812 C 6.941406 27.988281 7.363281 32.542969 8.28125 35.730469 C 8.675781 37.105469 9.035156 38.132812 10.613281 37.984375 C 12.628906 37.796875 10.519531 32.25 9.992188 28.5 C 9.652344 26.761719 9.738281 24.808594 9.3125 23.082031 C 8.699219 20.3125 8.222656 11.429688 8.082031 7.996094 C 7.949219 6.59375 8.195312 6.394531 8.058594 4.90625 C 12.621094 4.566406 19.78125 10.261719 23.414062 13.195312 L 32.726562 20.191406 C 34.242188 21.289062 46.476562 29.25 48.050781 29.105469 C 49.015625 29.015625 49.617188 27.898438 48.453125 26.769531 L 39.515625 20.972656 C 38.574219 20.355469 38 19.878906 37.058594 19.257812 C 36.214844 18.71875 35.273438 18.097656 34.503906 17.464844 L 22.605469 8.320312 C 18.695312 5.238281 13.292969 1.324219 8.035156 1.8125 C 7.542969 -3.441406 8.203125 -3.945312 9.695312 -7.886719 C 12.6875 -15.589844 16.136719 -23.15625 20.796875 -30.042969 L 25.410156 -36.484375 C 27.132812 -38.855469 29.246094 -40.820312 30.757812 -42.636719 L 33.402344 -45.535156 C 34.453125 -46.605469 35.34375 -47.484375 36.410156 -48.378906 C 36.8125 -48.769531 37.371094 -49.441406 37.871094 -49.753906 C 38.96875 -50.296875 39.105469 -49.78125 40.003906 -50.570312 C 40.410156 -50.960938 41.789062 -54.183594 38.636719 -53.890625 C 35.042969 -53.554688 22.664062 -39.410156 20.742188 -36.3125 C 16.011719 -29.242188 14.953125 -28.261719 11.035156 -20.03125 C 10.589844 -19.105469 10.066406 -18.085938 9.632812 -17.070312 C 9.054688 -15.691406 9.15625 -15.523438 8.222656 -14.199219 C 8.007812 -16.476562 8.699219 -24.230469 8.894531 -26.902344 C 9.730469 -36.878906 11.226562 -47.359375 12.878906 -57.144531 C 13.113281 -58.402344 14.929688 -65.46875 12.476562 -65.238281 C 10.726562 -65.074219 10.632812 -64.183594 10.054688 -61.832031 L 7.4375 -49.125 C 5.480469 -38.867188 4.058594 -22.828125 3.90625 -12.117188 L 3.769531 -2.207031 C 3.484375 0.382812 1.277344 4.210938 1.421875 5.789062 Z M 1.421875 5.789062 "/></g></g></g><g fill="#000000" fill-opacity="1"><g transform="translate(106.403551, 199.232601)"><g><path d="M -0.824219 -8.847656 C -0.53125 -5.695312 -0.128906 -4.230469 3.113281 -4.53125 C 5.652344 -4.769531 7.601562 -13.257812 9.160156 -14.554688 C 9.511719 -10.785156 12.738281 -6.492188 17.121094 -6.898438 C 18.609375 -7.039062 20.226562 -7.71875 21.863281 -9.109375 L 24.296875 -11.457031 C 28.363281 -16.167969 27.636719 -18.308594 26.320312 -18.183594 C 25.796875 -18.136719 25.207031 -17.816406 24.824219 -17.164062 C 23.722656 -15.734375 23.53125 -14.921875 22.007812 -13.277344 C 20.257812 -11.167969 18.515625 -9.945312 16.851562 -9.789062 C 15.011719 -9.617188 13.304688 -10.875 12.308594 -13.960938 C 11.210938 -17.21875 12.332031 -21.300781 9.265625 -21.015625 C 8.125 -20.90625 5.226562 -13.125 3.730469 -10.246094 L 3.125 -9.128906 C 2.738281 -8.5625 2.96875 -8.9375 2.730469 -8.652344 C 2.460938 -11.542969 3.375 -14.984375 4.34375 -16.933594 C 6.476562 -21.550781 8.113281 -22.941406 9.425781 -23.0625 C 11.09375 -23.21875 12.332031 -21.300781 13.558594 -21.414062 C 15.835938 -21.628906 13.09375 -26.410156 8.972656 -26.023438 C 2.839844 -25.453125 -1.289062 -13.84375 -0.824219 -8.847656 Z M -0.824219 -8.847656 "/></g></g></g><g fill="#000000" fill-opacity="1"><g transform="translate(131.81222, 196.863583)"><g><path d="M -0.804688 -9.558594 C -0.523438 -6.578125 -0.496094 -1.542969 1.984375 0.433594 C 2.847656 1.148438 3.667969 1.425781 4.457031 1.351562 C 9.1875 0.910156 13.214844 -11.835938 14.257812 -14.851562 C 14.953125 -16.859375 17.386719 -23.007812 15.109375 -22.796875 C 13.445312 -22.640625 12.964844 -19.238281 12.246094 -17.492188 C 11.121094 -14.382812 7.65625 -3.1875 4.234375 -1.984375 C 2.628906 -6.875 3.097656 -10.363281 3.492188 -15.617188 C 3.683594 -19.257812 4.703125 -22.535156 3.550781 -24.457031 C 2.929688 -24.488281 2.914062 -24.664062 2.125 -24.589844 C -0.503906 -24.347656 -1.136719 -13.152344 -0.804688 -9.558594 Z M -0.804688 -9.558594 "/></g></g></g><g fill="#000000" fill-opacity="1"><g transform="translate(150.649684, 195.107242)"><g><path d="M 7.304688 -0.328125 C 11.421875 -0.710938 14.394531 -4.878906 16.292969 -7.261719 C 17.5625 -8.796875 22.273438 -15.15625 22.117188 -16.820312 C 22.042969 -17.609375 21.757812 -17.847656 21.40625 -17.816406 C 19.742188 -17.660156 15.675781 -11.007812 15.367188 -10.535156 C 14.207031 -8.75 10.085938 -3.679688 7.28125 -3.417969 C 4.917969 -3.199219 3.46875 -8.277344 3.226562 -10.90625 C 2.390625 -19.84375 5.527344 -24.113281 1.5 -23.738281 C -0.253906 -23.574219 -0.761719 -19.550781 -0.851562 -17.683594 C -1.402344 -13.125 -0.660156 -7.097656 1.808594 -3.351562 C 2.929688 -1.777344 4.9375 -0.105469 7.304688 -0.328125 Z M 1.257812 -34.851562 C 1.4375 -32.921875 2.660156 -32.152344 3.886719 -32.265625 C 5.636719 -32.429688 7.296875 -34.53125 5.332031 -37.617188 C 4.714844 -38.53125 4.070312 -38.824219 3.457031 -38.765625 C 2.140625 -38.644531 1.070312 -36.867188 1.257812 -34.851562 Z M 1.257812 -34.851562 "/></g></g></g><g fill="#000000" fill-opacity="1"><g transform="translate(170.62616, 193.244704)"><g><path d="M 2.398438 14.359375 C 2.074219 10.855469 4.246094 6.675781 6.113281 3.9375 C 7.046875 2.613281 8.90625 -0.210938 10.234375 -1.132812 C 10.464844 1.320312 10.730469 3.242188 10.304688 5.3125 C 9.785156 8.277344 8.25 12.664062 6.046875 14.636719 C 5.484375 15.21875 4.5 16.019531 3.710938 16.09375 C 3.097656 16.148438 2.523438 15.671875 2.398438 14.359375 Z M -1.0625 -14.21875 C -0.628906 -9.574219 5.644531 -8.65625 8.828125 -3.917969 C 7.707031 -1.691406 -1.140625 6.734375 -0.40625 14.621094 C -0.109375 17.773438 1.796875 19.277344 4.25 19.046875 C 6.878906 18.800781 10.019531 16.476562 12.160156 11.945312 C 17.101562 1.410156 13.035156 -3.335938 13.269531 -4.59375 C 13.378906 -5.3125 19.167969 -10.535156 20.082031 -11.152344 L 25.65625 -15.824219 C 27.566406 -17.152344 27.601562 -18.660156 26.199219 -18.527344 C 25.410156 -18.453125 24.304688 -17.996094 22.914062 -16.808594 L 15.296875 -10.351562 C 14.089844 -9.089844 12.953125 -8.011719 11.640625 -6.917969 C 6.445312 -13.328125 -0.101562 -12.453125 4.054688 -18.140625 C 5.230469 -19.753906 5.007812 -19.292969 7.058594 -20.011719 C 7.382812 -22.253906 6.511719 -23.054688 5.285156 -22.941406 C 2.742188 -22.703125 -1.476562 -18.6875 -1.0625 -14.21875 Z M -1.0625 -14.21875 "/></g></g></g><g fill="#000000" fill-opacity="1"><g transform="translate(195.947216, 190.883854)"><g><path d="M -1.203125 -7.222656 C -0.957031 -4.59375 0.808594 11.503906 3.960938 11.207031 C 5.625 11.054688 6.121094 10.652344 6.5625 8.757812 C 7.308594 5.417969 7.667969 1.671875 8.726562 -2.140625 C 9.53125 -4.867188 12.085938 -13.5 13.636719 -14.882812 C 13.867188 -12.429688 14.320312 -8.492188 14.851562 -6.597656 C 15.800781 -3.0625 17.261719 -1.609375 19.101562 -1.78125 C 23.21875 -2.164062 26.5625 -9.902344 28.019531 -13.21875 C 28.734375 -15.050781 29.78125 -16.121094 29.0625 -18.175781 C 28.703125 -18.230469 28.34375 -18.285156 28.082031 -18.261719 C 27.378906 -18.195312 26.910156 -17.535156 26.03125 -15.59375 C 25.460938 -14.128906 24.875 -12.835938 24.210938 -11.449219 C 22.914062 -9.207031 21.410156 -5.441406 18.839844 -4.585938 C 17.496094 -6.667969 17.308594 -8.683594 16.996094 -12.011719 C 16.851562 -13.589844 16.351562 -18.933594 14.425781 -18.753906 C 11.796875 -18.511719 11.179688 -16.597656 10.085938 -14.109375 C 6.957031 -6.921875 6.410156 -4.222656 4.699219 3.007812 L 4.152344 4.738281 L 2.976562 -5.050781 C 2.160156 -13.8125 2.070312 -24.230469 2.632812 -32.414062 C 2.792969 -35.433594 3.722656 -39.675781 2.859375 -42.335938 C 2.238281 -42.367188 1.789062 -42.414062 1.441406 -42.378906 C 0.5625 -42.296875 0.359375 -41.660156 -0.21875 -39.308594 C -1.097656 -33.570312 -1.96875 -27.746094 -1.683594 -21.847656 C -1.648438 -20.527344 -1.636719 -18.496094 -1.601562 -17.171875 Z M -1.203125 -7.222656 "/></g></g></g><g fill="#000000" fill-opacity="1"><g transform="translate(222.670135, 188.3923)"><g><path d="M -0.621094 -6.660156 L 0.0742188 0.789062 C 0.230469 2.453125 0.429688 2.699219 0.636719 4.007812 C 1.019531 6.179688 0.507812 9.234375 2.871094 9.011719 C 4.625 8.847656 4.683594 3.804688 5.640625 -0.171875 L 8.710938 -8.941406 C 10.050781 -5.003906 11.039062 -1.03125 12.714844 2.703125 C 13.609375 4.742188 14.949219 8.679688 17.238281 9.527344 C 17.507812 9.589844 17.78125 9.65625 17.957031 9.636719 C 18.65625 9.574219 19.039062 8.917969 19.425781 8.351562 C 19.058594 7.238281 18.195312 6.523438 17.113281 4.414062 C 15.472656 1.03125 12.90625 -6.59375 12.214844 -10.242188 C 11.222656 -15.1875 11.144531 -15.089844 12.476562 -17.867188 C 12.847656 -18.609375 13.226562 -19.261719 13.601562 -20.003906 C 15.742188 -24.535156 18.976562 -27.753906 15.210938 -27.402344 C 12.316406 -27.132812 3.648438 -3.523438 3.171875 -2.945312 C 2.011719 -15.390625 1.980469 -32.796875 3.136719 -45.984375 C 3.46875 -49.992188 4.847656 -53.214844 1.429688 -52.894531 C -1.636719 -52.609375 -1.71875 -33.601562 -1.792969 -31.5625 C -1.769531 -23.699219 -1.40625 -15.070312 -0.621094 -6.660156 Z M -0.621094 -6.660156 "/></g></g></g><g fill="#000000" fill-opacity="1"><g transform="translate(242.558997, 186.53793)"><g><path d="M -0.824219 -8.847656 C -0.53125 -5.695312 -0.128906 -4.230469 3.113281 -4.53125 C 5.652344 -4.769531 7.601562 -13.257812 9.160156 -14.554688 C 9.511719 -10.785156 12.738281 -6.492188 17.121094 -6.898438 C 18.609375 -7.039062 20.226562 -7.71875 21.863281 -9.109375 L 24.296875 -11.457031 C 28.363281 -16.167969 27.636719 -18.308594 26.320312 -18.183594 C 25.796875 -18.136719 25.207031 -17.816406 24.824219 -17.164062 C 23.722656 -15.734375 23.53125 -14.921875 22.007812 -13.277344 C 20.257812 -11.167969 18.515625 -9.945312 16.851562 -9.789062 C 15.011719 -9.617188 13.304688 -10.875 12.308594 -13.960938 C 11.210938 -17.21875 12.332031 -21.300781 9.265625 -21.015625 C 8.125 -20.90625 5.226562 -13.125 3.730469 -10.246094 L 3.125 -9.128906 C 2.738281 -8.5625 2.96875 -8.9375 2.730469 -8.652344 C 2.460938 -11.542969 3.375 -14.984375 4.34375 -16.933594 C 6.476562 -21.550781 8.113281 -22.941406 9.425781 -23.0625 C 11.09375 -23.21875 12.332031 -21.300781 13.558594 -21.414062 C 15.835938 -21.628906 13.09375 -26.410156 8.972656 -26.023438 C 2.839844 -25.453125 -1.289062 -13.84375 -0.824219 -8.847656 Z M -0.824219 -8.847656 "/></g></g></g><g fill="#000000" fill-opacity="1"><g transform="translate(126.229997, 232.685466)"><g><path d="M 0.71875 2.894531 C 0.785156 3.59375 1.269531 3.589844 1.71875 3.636719 L 2.023438 3.609375 C 2.175781 5.183594 2.632812 10.445312 3.046875 11.996094 C 3.5 13.988281 3.71875 16.265625 4.179688 17.855469 C 4.378906 18.542969 4.5625 19.058594 5.347656 18.984375 C 6.355469 18.886719 5.296875 16.113281 5.027344 14.238281 C 4.859375 13.371094 4.898438 12.394531 4.683594 11.53125 C 4.371094 10.148438 4.125 5.707031 4.050781 3.988281 C 3.984375 3.289062 4.105469 3.1875 4.035156 2.445312 C 6.316406 2.269531 9.902344 5.109375 11.722656 6.570312 L 16.386719 10.058594 C 17.148438 10.605469 23.273438 14.574219 24.0625 14.5 C 24.542969 14.453125 24.84375 13.894531 24.257812 13.332031 L 19.785156 10.441406 C 19.3125 10.132812 19.023438 9.898438 18.550781 9.589844 C 18.128906 9.320312 17.65625 9.011719 17.273438 8.695312 L 11.3125 4.136719 C 9.355469 2.597656 6.648438 0.648438 4.019531 0.898438 C 3.769531 -1.730469 4.097656 -1.984375 4.839844 -3.953125 C 6.328125 -7.808594 8.042969 -11.597656 10.363281 -15.046875 L 12.664062 -18.273438 C 13.523438 -19.457031 14.578125 -20.445312 15.332031 -21.355469 L 16.652344 -22.808594 C 17.175781 -23.34375 17.621094 -23.785156 18.152344 -24.234375 C 18.355469 -24.429688 18.632812 -24.765625 18.882812 -24.921875 C 19.429688 -25.195312 19.5 -24.9375 19.949219 -25.332031 C 20.148438 -25.527344 20.835938 -27.140625 19.257812 -26.992188 C 17.460938 -26.820312 11.289062 -19.730469 10.332031 -18.179688 C 7.972656 -14.640625 7.445312 -14.148438 5.496094 -10.027344 C 5.273438 -9.566406 5.015625 -9.054688 4.796875 -8.546875 C 4.511719 -7.855469 4.5625 -7.773438 4.09375 -7.109375 C 3.984375 -8.25 4.324219 -12.125 4.417969 -13.460938 C 4.824219 -18.453125 5.5625 -23.691406 6.375 -28.589844 C 6.492188 -29.21875 7.390625 -32.753906 6.164062 -32.636719 C 5.289062 -32.550781 5.242188 -32.105469 4.957031 -30.929688 L 3.664062 -24.574219 C 2.695312 -19.441406 2.003906 -11.417969 1.941406 -6.0625 L 1.882812 -1.109375 C 1.742188 0.1875 0.644531 2.105469 0.71875 2.894531 Z M 0.71875 2.894531 "/></g></g></g><g fill="#000000" fill-opacity="1"><g transform="translate(143.221639, 231.062734)"><g><path d="M -0.421875 -4.425781 C -0.273438 -2.847656 -0.0703125 -2.113281 1.550781 -2.269531 C 2.820312 -2.390625 3.785156 -6.636719 4.5625 -7.289062 C 4.742188 -5.402344 6.363281 -3.261719 8.554688 -3.46875 C 9.296875 -3.539062 10.105469 -3.882812 10.921875 -4.578125 L 12.136719 -5.757812 C 14.164062 -8.117188 13.796875 -9.1875 13.140625 -9.125 C 12.878906 -9.097656 12.585938 -8.9375 12.394531 -8.609375 C 11.84375 -7.894531 11.75 -7.488281 10.988281 -6.664062 C 10.117188 -5.609375 9.246094 -4.992188 8.414062 -4.914062 C 7.496094 -4.828125 6.640625 -5.453125 6.140625 -6.996094 C 5.585938 -8.621094 6.140625 -10.664062 4.609375 -10.519531 C 4.039062 -10.464844 2.597656 -6.570312 1.851562 -5.128906 L 1.554688 -4.570312 C 1.359375 -4.285156 1.472656 -4.472656 1.355469 -4.328125 C 1.214844 -5.773438 1.671875 -7.496094 2.152344 -8.472656 C 3.214844 -10.78125 4.03125 -11.480469 4.6875 -11.542969 C 5.519531 -11.621094 6.140625 -10.664062 6.753906 -10.722656 C 7.894531 -10.832031 6.515625 -13.21875 4.457031 -13.023438 C 1.390625 -12.730469 -0.660156 -6.921875 -0.421875 -4.425781 Z M -0.421875 -4.425781 "/></g></g></g><g fill="#000000" fill-opacity="1"><g transform="translate(155.921579, 229.849868)"><g><path d="M -14.175781 -18.359375 C -14.117188 -17.746094 -13.664062 -17.65625 -13.183594 -17.703125 C -12.921875 -17.730469 -12.660156 -17.796875 -12.445312 -17.863281 C -12.132812 -18.734375 -12.554688 -18.515625 -11.5 -19.058594 C -10.996094 -19.328125 -10.628906 -19.671875 -10.125 -19.941406 C -7.511719 -21.25 -5.085938 -22.234375 -2.261719 -23.210938 C -1.835938 -23.382812 -0.84375 -23.65625 -0.589844 -23.769531 L -0.59375 -19.65625 C -0.585938 -19.082031 -0.535156 -18.117188 -0.570312 -17.539062 C -0.667969 -16.246094 -0.148438 -10.328125 0.0117188 -8.664062 L 0.078125 -6.59375 C 0.382812 -3.394531 0.75 1.828125 1.3125 4.957031 C 1.414062 6.007812 1.609375 7.582031 2.746094 7.472656 C 3.886719 7.363281 2.941406 4.40625 2.84375 3.398438 C 2.574219 1.476562 1.78125 -7.285156 1.785156 -8.613281 C 1.785156 -9.542969 1.507812 -11.503906 1.386719 -12.773438 C 1.328125 -13.386719 1.460938 -13.398438 1.40625 -13.96875 C 1.363281 -14.40625 1.269531 -14.929688 1.277344 -15.328125 L 1.296875 -24.390625 C 2.324219 -24.710938 8.863281 -26.617188 11.273438 -26.847656 C 11.578125 -26.875 11.796875 -26.898438 11.976562 -26.871094 C 12.515625 -26.789062 12.367188 -26.953125 12.539062 -26.527344 C 14.203125 -26.683594 13.511719 -28.386719 11.453125 -28.191406 C 8.78125 -27.933594 6.238281 -27.25 3.742188 -26.527344 C 3.09375 -26.375 2.199219 -26.023438 1.5 -25.957031 C 1.367188 -27.359375 2.351562 -26.304688 2.242188 -27.441406 C 2.214844 -27.707031 2.15625 -27.875 2.144531 -28.007812 C 2.058594 -28.441406 2.179688 -28.101562 2.128906 -28.625 C 2.0625 -29.328125 1.65625 -29.863281 1.175781 -29.816406 C 0.605469 -29.761719 -0.0195312 -28.90625 -0.230469 -26.5 C -0.398438 -24.980469 -0.304688 -25.386719 -2.097656 -24.730469 C -4.527344 -23.789062 -14.363281 -20.332031 -14.175781 -18.359375 Z M -14.175781 -18.359375 "/></g></g></g><g fill="#000000" fill-opacity="1"><g transform="translate(161.001557, 229.364721)"><g><path d="M -0.609375 -3.609375 C -0.484375 -2.296875 0.417969 5.75 1.992188 5.601562 C 2.824219 5.519531 3.070312 5.320312 3.289062 4.371094 C 3.660156 2.699219 3.835938 0.828125 4.363281 -1.078125 C 4.761719 -2.445312 6.027344 -6.765625 6.800781 -7.457031 C 6.917969 -6.230469 7.152344 -4.261719 7.417969 -3.316406 C 7.898438 -1.550781 8.628906 -0.824219 9.550781 -0.910156 C 11.609375 -1.109375 13.269531 -4.980469 13.996094 -6.640625 C 14.351562 -7.558594 14.875 -8.09375 14.511719 -9.121094 C 14.332031 -9.148438 14.152344 -9.175781 14.019531 -9.164062 C 13.671875 -9.128906 13.4375 -8.796875 13 -7.828125 C 12.714844 -7.09375 12.425781 -6.445312 12.09375 -5.75 C 11.449219 -4.628906 10.699219 -2.746094 9.414062 -2.3125 C 8.742188 -3.355469 8.644531 -4.363281 8.484375 -6.027344 C 8.410156 -6.816406 8.15625 -9.488281 7.191406 -9.394531 C 5.878906 -9.269531 5.570312 -8.3125 5.027344 -7.066406 C 3.46875 -3.46875 3.203125 -2.117188 2.351562 1.5 L 2.082031 2.363281 L 1.484375 -2.527344 C 1.0625 -6.910156 1.007812 -12.121094 1.28125 -16.210938 C 1.359375 -17.722656 1.816406 -19.84375 1.382812 -21.171875 C 1.070312 -21.1875 0.847656 -21.210938 0.671875 -21.191406 C 0.234375 -21.152344 0.132812 -20.832031 -0.152344 -19.65625 C -0.585938 -16.785156 -1.015625 -13.871094 -0.867188 -10.921875 C -0.847656 -10.261719 -0.839844 -9.246094 -0.820312 -8.585938 Z M -0.609375 -3.609375 "/></g></g></g><g fill="#000000" fill-opacity="1"><g transform="translate(174.358397, 228.089119)"><g><path d="M 0.597656 -0.234375 C 1.953125 -0.363281 1.285156 -1.800781 1.441406 -2.964844 C 1.515625 -4.035156 1.824219 -4.949219 2.191406 -5.734375 C 2.785156 -6.941406 3.003906 -6.960938 4.667969 -7.121094 C 5.148438 -7.167969 5.8125 -7.183594 6.382812 -7.238281 C 7.257812 -7.324219 7.949219 -7.476562 7.890625 -8.089844 C 7.835938 -8.660156 6.46875 -8.617188 5.199219 -8.496094 C 4.457031 -8.425781 3.714844 -8.3125 3.320312 -8.273438 C 1.960938 -8.144531 1.78125 -7.285156 1.164062 -6.785156 C 1.109375 -7.355469 1.203125 -7.320312 1.144531 -7.933594 C 1.101562 -8.371094 1.050781 -8.898438 1.054688 -9.339844 C 1.066406 -10.578125 1.207031 -11.429688 0.0234375 -11.316406 C -0.941406 -11.226562 -0.59375 -6.664062 -0.515625 -5.875 C -0.367188 -4.78125 -0.308594 -3.683594 -0.164062 -2.636719 C -0.132812 -2.328125 -0.28125 -0.148438 0.597656 -0.234375 Z M 0.597656 -0.234375 "/></g></g></g><g fill="#000000" fill-opacity="1"><g transform="translate(181.496638, 227.407405)"><g><path d="M 3.652344 -0.171875 C 5.710938 -0.367188 7.191406 -2.453125 8.136719 -3.652344 C 8.773438 -4.417969 11.121094 -7.605469 11.039062 -8.4375 C 11.003906 -8.832031 10.859375 -8.949219 10.683594 -8.933594 C 9.851562 -8.851562 7.828125 -5.519531 7.671875 -5.285156 C 7.09375 -4.390625 5.039062 -1.851562 3.636719 -1.71875 C 2.453125 -1.605469 1.726562 -4.144531 1.601562 -5.457031 C 1.175781 -9.925781 2.738281 -12.0625 0.722656 -11.871094 C -0.152344 -11.789062 -0.402344 -9.773438 -0.445312 -8.84375 C -0.714844 -6.5625 -0.339844 -3.546875 0.902344 -1.675781 C 1.460938 -0.890625 2.46875 -0.0585938 3.652344 -0.171875 Z M 0.589844 -17.429688 C 0.683594 -16.464844 1.292969 -16.082031 1.90625 -16.140625 C 2.78125 -16.222656 3.609375 -17.273438 2.625 -18.816406 C 2.316406 -19.273438 1.992188 -19.417969 1.683594 -19.390625 C 1.027344 -19.328125 0.492188 -18.433594 0.589844 -17.429688 Z M 0.589844 -17.429688 "/></g></g></g><g fill="#000000" fill-opacity="1"><g transform="translate(191.481415, 226.453841)"><g><path d="M -0.421875 -4.425781 C -0.273438 -2.847656 -0.0703125 -2.113281 1.550781 -2.269531 C 2.820312 -2.390625 3.785156 -6.636719 4.5625 -7.289062 C 4.742188 -5.402344 6.363281 -3.261719 8.554688 -3.46875 C 9.296875 -3.539062 10.105469 -3.882812 10.921875 -4.578125 L 12.136719 -5.757812 C 14.164062 -8.117188 13.796875 -9.1875 13.140625 -9.125 C 12.878906 -9.097656 12.585938 -8.9375 12.394531 -8.609375 C 11.84375 -7.894531 11.75 -7.488281 10.988281 -6.664062 C 10.117188 -5.609375 9.246094 -4.992188 8.414062 -4.914062 C 7.496094 -4.828125 6.640625 -5.453125 6.140625 -6.996094 C 5.585938 -8.621094 6.140625 -10.664062 4.609375 -10.519531 C 4.039062 -10.464844 2.597656 -6.570312 1.851562 -5.128906 L 1.554688 -4.570312 C 1.359375 -4.285156 1.472656 -4.472656 1.355469 -4.328125 C 1.214844 -5.773438 1.671875 -7.496094 2.152344 -8.472656 C 3.214844 -10.78125 4.03125 -11.480469 4.6875 -11.542969 C 5.519531 -11.621094 6.140625 -10.664062 6.753906 -10.722656 C 7.894531 -10.832031 6.515625 -13.21875 4.457031 -13.023438 C 1.390625 -12.730469 -0.660156 -6.921875 -0.421875 -4.425781 Z M -0.421875 -4.425781 "/></g></g></g><g fill="#000000" fill-opacity="1"><g transform="translate(204.181355, 225.240975)"><g><path d="M 0.597656 -0.234375 C 1.953125 -0.363281 1.285156 -1.800781 1.441406 -2.964844 C 1.515625 -4.035156 1.824219 -4.949219 2.191406 -5.734375 C 2.785156 -6.941406 3.003906 -6.960938 4.667969 -7.121094 C 5.148438 -7.167969 5.8125 -7.183594 6.382812 -7.238281 C 7.257812 -7.324219 7.949219 -7.476562 7.890625 -8.089844 C 7.835938 -8.660156 6.46875 -8.617188 5.199219 -8.496094 C 4.457031 -8.425781 3.714844 -8.3125 3.320312 -8.273438 C 1.960938 -8.144531 1.78125 -7.285156 1.164062 -6.785156 C 1.109375 -7.355469 1.203125 -7.320312 1.144531 -7.933594 C 1.101562 -8.371094 1.050781 -8.898438 1.054688 -9.339844 C 1.066406 -10.578125 1.207031 -11.429688 0.0234375 -11.316406 C -0.941406 -11.226562 -0.59375 -6.664062 -0.515625 -5.875 C -0.367188 -4.78125 -0.308594 -3.683594 -0.164062 -2.636719 C -0.132812 -2.328125 -0.28125 -0.148438 0.597656 -0.234375 Z M 0.597656 -0.234375 "/></g></g></g><g fill="#000000" fill-opacity="1"><g transform="translate(211.319595, 224.55926)"><g><path d="M -0.421875 -4.425781 C -0.273438 -2.847656 -0.0703125 -2.113281 1.550781 -2.269531 C 2.820312 -2.390625 3.785156 -6.636719 4.5625 -7.289062 C 4.742188 -5.402344 6.363281 -3.261719 8.554688 -3.46875 C 9.296875 -3.539062 10.105469 -3.882812 10.921875 -4.578125 L 12.136719 -5.757812 C 14.164062 -8.117188 13.796875 -9.1875 13.140625 -9.125 C 12.878906 -9.097656 12.585938 -8.9375 12.394531 -8.609375 C 11.84375 -7.894531 11.75 -7.488281 10.988281 -6.664062 C 10.117188 -5.609375 9.246094 -4.992188 8.414062 -4.914062 C 7.496094 -4.828125 6.640625 -5.453125 6.140625 -6.996094 C 5.585938 -8.621094 6.140625 -10.664062 4.609375 -10.519531 C 4.039062 -10.464844 2.597656 -6.570312 1.851562 -5.128906 L 1.554688 -4.570312 C 1.359375 -4.285156 1.472656 -4.472656 1.355469 -4.328125 C 1.214844 -5.773438 1.671875 -7.496094 2.152344 -8.472656 C 3.214844 -10.78125 4.03125 -11.480469 4.6875 -11.542969 C 5.519531 -11.621094 6.140625 -10.664062 6.753906 -10.722656 C 7.894531 -10.832031 6.515625 -13.21875 4.457031 -13.023438 C 1.390625 -12.730469 -0.660156 -6.921875 -0.421875 -4.425781 Z M -0.421875 -4.425781 "/></g></g></g><g fill="#000000" fill-opacity="1"><g transform="translate(224.019535, 223.346394)"><g><path d="M -0.574219 -6 C -0.308594 -3.242188 1.164062 -0.773438 4.1875 -1.0625 C 7.296875 -1.359375 9.765625 -4.644531 11.34375 -7.09375 C 11.539062 -7.378906 11.808594 -7.800781 11.910156 -8.121094 C 12.117188 -8.714844 11.855469 -9.175781 11.460938 -9.140625 C 11.242188 -9.117188 10.910156 -8.867188 10.644531 -8.398438 C 9.234375 -6.054688 7.113281 -2.800781 4.09375 -2.511719 C 3.039062 -2.414062 2.503906 -2.933594 2.121094 -3.695312 C 0.867188 -5.742188 2.03125 -9.742188 3.464844 -10.941406 C 3.621094 -10.203125 4.011719 -9.84375 4.359375 -9.875 C 4.667969 -9.90625 4.898438 -10.28125 4.820312 -11.070312 C 4.714844 -12.207031 4.128906 -12.769531 3.253906 -12.6875 C 0.710938 -12.445312 -0.769531 -8.058594 -0.574219 -6 Z M -0.574219 -6 "/></g></g></g><g fill="#000000" fill-opacity="1"><g transform="translate(234.617422, 222.334277)"><g><path d="M -0.609375 -3.609375 C -0.484375 -2.296875 0.417969 5.75 1.992188 5.601562 C 2.824219 5.519531 3.070312 5.320312 3.289062 4.371094 C 3.660156 2.699219 3.835938 0.828125 4.363281 -1.078125 C 4.761719 -2.445312 6.027344 -6.765625 6.800781 -7.457031 C 6.917969 -6.230469 7.152344 -4.261719 7.417969 -3.316406 C 7.898438 -1.550781 8.628906 -0.824219 9.550781 -0.910156 C 11.609375 -1.109375 13.269531 -4.980469 13.996094 -6.640625 C 14.351562 -7.558594 14.875 -8.09375 14.511719 -9.121094 C 14.332031 -9.148438 14.152344 -9.175781 14.019531 -9.164062 C 13.671875 -9.128906 13.4375 -8.796875 13 -7.828125 C 12.714844 -7.09375 12.425781 -6.445312 12.09375 -5.75 C 11.449219 -4.628906 10.699219 -2.746094 9.414062 -2.3125 C 8.742188 -3.355469 8.644531 -4.363281 8.484375 -6.027344 C 8.410156 -6.816406 8.15625 -9.488281 7.191406 -9.394531 C 5.878906 -9.269531 5.570312 -8.3125 5.027344 -7.066406 C 3.46875 -3.46875 3.203125 -2.117188 2.351562 1.5 L 2.082031 2.363281 L 1.484375 -2.527344 C 1.0625 -6.910156 1.007812 -12.121094 1.28125 -16.210938 C 1.359375 -17.722656 1.816406 -19.84375 1.382812 -21.171875 C 1.070312 -21.1875 0.847656 -21.210938 0.671875 -21.191406 C 0.234375 -21.152344 0.132812 -20.832031 -0.152344 -19.65625 C -0.585938 -16.785156 -1.015625 -13.871094 -0.867188 -10.921875 C -0.847656 -10.261719 -0.839844 -9.246094 -0.820312 -8.585938 Z M -0.609375 -3.609375 "/></g></g></g><g fill="#000000" fill-opacity="1"><g transform="translate(247.974262, 221.058676)"><g><path d="M -0.574219 -6 C -0.308594 -3.242188 1.164062 -0.773438 4.1875 -1.0625 C 7.296875 -1.359375 9.765625 -4.644531 11.34375 -7.09375 C 11.539062 -7.378906 11.808594 -7.800781 11.910156 -8.121094 C 12.117188 -8.714844 11.855469 -9.175781 11.460938 -9.140625 C 11.242188 -9.117188 10.910156 -8.867188 10.644531 -8.398438 C 9.234375 -6.054688 7.113281 -2.800781 4.09375 -2.511719 C 3.039062 -2.414062 2.503906 -2.933594 2.121094 -3.695312 C 0.867188 -5.742188 2.03125 -9.742188 3.464844 -10.941406 C 3.621094 -10.203125 4.011719 -9.84375 4.359375 -9.875 C 4.667969 -9.90625 4.898438 -10.28125 4.820312 -11.070312 C 4.714844 -12.207031 4.128906 -12.769531 3.253906 -12.6875 C 0.710938 -12.445312 -0.769531 -8.058594 -0.574219 -6 Z M -0.574219 -6 "/></g></g></g><g fill="#000000" fill-opacity="1"><g transform="translate(258.572148, 220.046559)"><g><path d="M -0.609375 -3.609375 C -0.484375 -2.296875 0.417969 5.75 1.992188 5.601562 C 2.824219 5.519531 3.070312 5.320312 3.289062 4.371094 C 3.660156 2.699219 3.835938 0.828125 4.363281 -1.078125 C 4.761719 -2.445312 6.027344 -6.765625 6.800781 -7.457031 C 6.917969 -6.230469 7.152344 -4.261719 7.417969 -3.316406 C 7.898438 -1.550781 8.628906 -0.824219 9.550781 -0.910156 C 11.609375 -1.109375 13.269531 -4.980469 13.996094 -6.640625 C 14.351562 -7.558594 14.875 -8.09375 14.511719 -9.121094 C 14.332031 -9.148438 14.152344 -9.175781 14.019531 -9.164062 C 13.671875 -9.128906 13.4375 -8.796875 13 -7.828125 C 12.714844 -7.09375 12.425781 -6.445312 12.09375 -5.75 C 11.449219 -4.628906 10.699219 -2.746094 9.414062 -2.3125 C 8.742188 -3.355469 8.644531 -4.363281 8.484375 -6.027344 C 8.410156 -6.816406 8.15625 -9.488281 7.191406 -9.394531 C 5.878906 -9.269531 5.570312 -8.3125 5.027344 -7.066406 C 3.46875 -3.46875 3.203125 -2.117188 2.351562 1.5 L 2.082031 2.363281 L 1.484375 -2.527344 C 1.0625 -6.910156 1.007812 -12.121094 1.28125 -16.210938 C 1.359375 -17.722656 1.816406 -19.84375 1.382812 -21.171875 C 1.070312 -21.1875 0.847656 -21.210938 0.671875 -21.191406 C 0.234375 -21.152344 0.132812 -20.832031 -0.152344 -19.65625 C -0.585938 -16.785156 -1.015625 -13.871094 -0.867188 -10.921875 C -0.847656 -10.261719 -0.839844 -9.246094 -0.820312 -8.585938 Z M -0.609375 -3.609375 "/></g></g></g><g fill="#000000" fill-opacity="1"><g transform="translate(271.928988, 218.770957)"><g><path d="M 3.652344 -0.171875 C 5.710938 -0.367188 7.191406 -2.453125 8.136719 -3.652344 C 8.773438 -4.417969 11.121094 -7.605469 11.039062 -8.4375 C 11.003906 -8.832031 10.859375 -8.949219 10.683594 -8.933594 C 9.851562 -8.851562 7.828125 -5.519531 7.671875 -5.285156 C 7.09375 -4.390625 5.039062 -1.851562 3.636719 -1.71875 C 2.453125 -1.605469 1.726562 -4.144531 1.601562 -5.457031 C 1.175781 -9.925781 2.738281 -12.0625 0.722656 -11.871094 C -0.152344 -11.789062 -0.402344 -9.773438 -0.445312 -8.84375 C -0.714844 -6.5625 -0.339844 -3.546875 0.902344 -1.675781 C 1.460938 -0.890625 2.46875 -0.0585938 3.652344 -0.171875 Z M 0.589844 -17.429688 C 0.683594 -16.464844 1.292969 -16.082031 1.90625 -16.140625 C 2.78125 -16.222656 3.609375 -17.273438 2.625 -18.816406 C 2.316406 -19.273438 1.992188 -19.417969 1.683594 -19.390625 C 1.027344 -19.328125 0.492188 -18.433594 0.589844 -17.429688 Z M 0.589844 -17.429688 "/></g></g></g><g fill="#000000" fill-opacity="1"><g transform="translate(281.913766, 217.817393)"><g><path d="M 1.257812 -8.121094 C 1.460938 -9.246094 2.742188 -11.089844 3.902344 -11.421875 C 3.90625 -10.007812 2.296875 -8.792969 1.257812 -8.121094 Z M -0.613281 -6.882812 C -0.496094 -5.65625 -0.433594 -4.554688 0.714844 -3.605469 C 1.53125 -2.929688 2.4375 -2.707031 3.359375 -2.796875 C 6.03125 -3.050781 8.796875 -6.011719 10.261719 -7.789062 C 10.609375 -8.308594 10.605469 -8.351562 10.414062 -8.996094 C 9.097656 -8.871094 9.816406 -8.761719 8.152344 -7.1875 C 7.867188 -6.941406 7.753906 -6.753906 7.429688 -6.457031 C 6.613281 -5.714844 4.898438 -4.269531 3.363281 -4.121094 C 2.835938 -4.074219 2.296875 -4.199219 1.863281 -4.554688 C 1.046875 -5.226562 1.070312 -5.9375 0.980469 -6.855469 C 2.332031 -7.074219 3.785156 -8.496094 4.410156 -9.351562 C 5.605469 -11.1875 5.4375 -12.941406 3.511719 -12.757812 C 1.410156 -12.554688 -0.820312 -9.070312 -0.613281 -6.882812 Z M -0.613281 -6.882812 "/></g></g></g></svg>