<svg xmlns="http://www.w3.org/2000/svg" xmlns:xlink="http://www.w3.org/1999/xlink" width="500" zoomAndPan="magnify" viewBox="0 0 375 374.999991" height="500" preserveAspectRatio="xMidYMid meet" version="1.0"><defs><g/></defs><g fill="#000000" fill-opacity="1"><g transform="translate(89.285155, 198.749987)"><g><path d="M 0.878906 5.894531 C 0.878906 7.304688 1.847656 7.390625 2.726562 7.566406 L 3.34375 7.566406 C 3.34375 10.734375 3.257812 21.296875 3.785156 24.464844 C 4.3125 28.511719 4.3125 33.085938 4.929688 36.34375 C 5.191406 37.75 5.457031 38.808594 7.039062 38.808594 C 9.0625 38.808594 7.480469 33.085938 7.304688 29.304688 C 7.128906 27.542969 7.390625 25.605469 7.128906 23.847656 C 6.777344 21.03125 7.128906 12.144531 7.304688 8.710938 C 7.304688 7.304688 7.566406 7.128906 7.566406 5.632812 C 12.144531 5.71875 18.742188 12.054688 22.085938 15.3125 L 30.710938 23.144531 C 32.117188 24.375 43.558594 33.4375 45.144531 33.4375 C 46.109375 33.4375 46.816406 32.382812 45.757812 31.152344 L 37.398438 24.550781 C 36.519531 23.847656 35.992188 23.320312 35.109375 22.617188 C 34.320312 22 33.4375 21.296875 32.734375 20.589844 L 21.734375 10.382812 C 18.128906 6.953125 13.113281 2.550781 7.832031 2.550781 C 7.832031 -2.726562 8.535156 -3.167969 10.382812 -6.953125 C 14.078125 -14.34375 18.214844 -21.558594 23.496094 -27.984375 L 28.6875 -33.96875 C 30.625 -36.167969 32.910156 -37.925781 34.582031 -39.597656 L 37.488281 -42.238281 C 38.632812 -43.207031 39.597656 -44 40.742188 -44.789062 C 41.183594 -45.144531 41.796875 -45.757812 42.328125 -46.023438 C 43.472656 -46.460938 43.558594 -45.933594 44.527344 -46.640625 C 44.964844 -46.992188 46.640625 -50.070312 43.472656 -50.070312 C 39.863281 -50.070312 26.222656 -37.136719 24.023438 -34.230469 C 18.65625 -27.632812 17.511719 -26.75 12.847656 -18.917969 C 12.320312 -18.039062 11.703125 -17.070312 11.175781 -16.105469 C 10.472656 -14.785156 10.558594 -14.609375 9.503906 -13.375 C 9.503906 -15.664062 10.910156 -23.320312 11.351562 -25.960938 C 13.113281 -35.816406 15.574219 -46.109375 18.128906 -55.703125 C 18.480469 -56.933594 20.945312 -63.796875 18.480469 -63.796875 C 16.71875 -63.796875 16.542969 -62.917969 15.75 -60.628906 L 11.96875 -48.222656 C 9.0625 -38.191406 6.160156 -22.351562 5.015625 -11.703125 L 3.960938 -1.847656 C 3.433594 0.703125 0.878906 4.3125 0.878906 5.894531 Z M 0.878906 5.894531 "/></g></g></g><g fill="#000000" fill-opacity="1"><g transform="translate(123.427651, 198.749987)"><g><path d="M 0 -8.886719 C 0 -5.71875 0.265625 -4.222656 3.519531 -4.222656 C 6.070312 -4.222656 8.800781 -12.496094 10.472656 -13.640625 C 10.472656 -9.855469 13.289062 -5.28125 17.6875 -5.28125 C 19.183594 -5.28125 20.855469 -5.808594 22.617188 -7.039062 L 25.253906 -9.152344 C 29.742188 -13.464844 29.214844 -15.664062 27.894531 -15.664062 C 27.367188 -15.664062 26.75 -15.398438 26.3125 -14.785156 C 25.078125 -13.464844 24.816406 -12.671875 23.144531 -11.175781 C 21.207031 -9.238281 19.359375 -8.183594 17.6875 -8.183594 C 15.839844 -8.183594 14.253906 -9.589844 13.550781 -12.757812 C 12.757812 -16.105469 14.253906 -20.0625 11.175781 -20.0625 C 10.03125 -20.0625 6.421875 -12.582031 4.664062 -9.855469 L 3.960938 -8.800781 C 3.519531 -8.273438 3.785156 -8.625 3.519531 -8.359375 C 3.519531 -11.265625 4.75 -14.609375 5.894531 -16.457031 C 8.449219 -20.855469 10.207031 -22.085938 11.527344 -22.085938 C 13.199219 -22.085938 14.253906 -20.0625 15.488281 -20.0625 C 17.777344 -20.0625 15.488281 -25.078125 11.351562 -25.078125 C 5.191406 -25.078125 0 -13.902344 0 -8.886719 Z M 0 -8.886719 "/></g></g></g><g fill="#000000" fill-opacity="1"><g transform="translate(148.946521, 198.749987)"><g><path d="M 0.0898438 -9.589844 C 0.0898438 -6.601562 -0.351562 -1.582031 1.9375 0.617188 C 2.726562 1.40625 3.519531 1.761719 4.3125 1.761719 C 9.0625 1.761719 14.253906 -10.558594 15.574219 -13.464844 C 16.457031 -15.398438 19.449219 -21.296875 17.160156 -21.296875 C 15.488281 -21.296875 14.695312 -17.953125 13.816406 -16.28125 C 12.40625 -13.289062 7.917969 -2.464844 4.398438 -1.582031 C 3.257812 -6.601562 4.046875 -10.03125 4.929688 -15.222656 C 5.457031 -18.832031 6.777344 -22 5.808594 -24.023438 C 5.191406 -24.109375 5.191406 -24.289062 4.398438 -24.289062 C 1.761719 -24.289062 0.0898438 -13.199219 0.0898438 -9.589844 Z M 0.0898438 -9.589844 "/></g></g></g><g fill="#000000" fill-opacity="1"><g transform="translate(167.865686, 198.749987)"><g><path d="M 7.304688 0.351562 C 11.441406 0.351562 14.785156 -3.519531 16.894531 -5.71875 C 18.304688 -7.128906 23.582031 -13.023438 23.582031 -14.695312 C 23.582031 -15.488281 23.320312 -15.75 22.96875 -15.75 C 21.296875 -15.75 16.632812 -9.503906 16.28125 -9.0625 C 14.960938 -7.390625 10.382812 -2.726562 7.566406 -2.726562 C 5.191406 -2.726562 4.222656 -7.917969 4.222656 -10.558594 C 4.222656 -19.535156 7.742188 -23.496094 3.695312 -23.496094 C 1.9375 -23.496094 1.054688 -19.535156 0.792969 -17.6875 C -0.175781 -13.199219 0 -7.128906 2.113281 -3.167969 C 3.078125 -1.496094 4.929688 0.351562 7.304688 0.351562 Z M 4.488281 -34.582031 C 4.488281 -32.648438 5.632812 -31.765625 6.863281 -31.765625 C 8.625 -31.765625 10.472656 -33.703125 8.800781 -36.957031 C 8.273438 -37.925781 7.65625 -38.277344 7.039062 -38.277344 C 5.71875 -38.277344 4.488281 -36.605469 4.488281 -34.582031 Z M 4.488281 -34.582031 "/></g></g></g><g fill="#000000" fill-opacity="1"><g transform="translate(187.928802, 198.749987)"><g><path d="M 1.054688 14.519531 C 1.054688 11 3.609375 7.039062 5.71875 4.488281 C 6.777344 3.257812 8.886719 0.617188 10.296875 -0.175781 C 10.296875 2.289062 10.382812 4.222656 9.769531 6.246094 C 8.976562 9.152344 7.039062 13.375 4.664062 15.136719 C 4.046875 15.664062 2.992188 16.367188 2.199219 16.367188 C 1.582031 16.367188 1.054688 15.839844 1.054688 14.519531 Z M 0.265625 -14.253906 C 0.265625 -9.589844 6.421875 -8.097656 9.152344 -3.078125 C 7.832031 -0.96875 -1.761719 6.601562 -1.761719 14.519531 C -1.761719 17.6875 0 19.359375 2.464844 19.359375 C 5.105469 19.359375 8.449219 17.335938 11 13.023438 C 16.894531 2.992188 13.289062 -2.113281 13.640625 -3.34375 C 13.816406 -4.046875 20.0625 -8.710938 21.03125 -9.238281 L 27.015625 -13.375 C 29.039062 -14.519531 29.214844 -16.015625 27.808594 -16.015625 C 27.015625 -16.015625 25.871094 -15.664062 24.375 -14.609375 L 16.191406 -8.886719 C 14.871094 -7.742188 13.640625 -6.777344 12.230469 -5.808594 C 7.65625 -12.671875 1.054688 -12.40625 5.71875 -17.6875 C 7.039062 -19.183594 6.777344 -18.742188 8.886719 -19.269531 C 9.414062 -21.472656 8.625 -22.351562 7.390625 -22.351562 C 4.839844 -22.351562 0.265625 -18.742188 0.265625 -14.253906 Z M 0.265625 -14.253906 "/></g></g></g><g fill="#000000" fill-opacity="1"><g transform="translate(213.359678, 198.749987)"><g><path d="M -0.527344 -7.304688 C -0.527344 -4.664062 -0.265625 11.527344 2.902344 11.527344 C 4.574219 11.527344 5.105469 11.175781 5.71875 9.328125 C 6.777344 6.070312 7.480469 2.375 8.886719 -1.320312 C 9.945312 -3.960938 13.289062 -12.320312 14.960938 -13.550781 C 14.960938 -11.085938 15.046875 -7.128906 15.398438 -5.191406 C 16.015625 -1.582031 17.335938 0 19.183594 0 C 23.320312 0 27.367188 -7.390625 29.128906 -10.558594 C 30.007812 -12.320312 31.152344 -13.289062 30.625 -15.398438 C 30.269531 -15.488281 29.917969 -15.574219 29.65625 -15.574219 C 28.953125 -15.574219 28.421875 -14.960938 27.367188 -13.113281 C 26.664062 -11.703125 25.960938 -10.472656 25.167969 -9.152344 C 23.671875 -7.039062 21.824219 -3.433594 19.183594 -2.816406 C 18.039062 -5.015625 18.039062 -7.039062 18.039062 -10.382812 C 18.039062 -11.96875 18.039062 -17.335938 16.105469 -17.335938 C 13.464844 -17.335938 12.671875 -15.488281 11.351562 -13.113281 C 7.566406 -6.246094 6.777344 -3.609375 4.398438 3.433594 L 3.695312 5.105469 L 3.433594 -4.75 C 3.433594 -13.550781 4.3125 -23.933594 5.632812 -32.03125 C 6.070312 -35.023438 7.390625 -39.160156 6.777344 -41.886719 C 6.160156 -41.976562 5.71875 -42.0625 5.367188 -42.0625 C 4.488281 -42.0625 4.222656 -41.445312 3.433594 -39.160156 C 2.023438 -33.527344 0.617188 -27.808594 0.351562 -21.910156 C 0.265625 -20.589844 0.0898438 -18.566406 0 -17.246094 Z M -0.527344 -7.304688 "/></g></g></g><g fill="#000000" fill-opacity="1"><g transform="translate(240.198498, 198.749987)"><g><path d="M 0 -6.6875 L 0 0.792969 C 0 2.464844 0.175781 2.726562 0.265625 4.046875 C 0.441406 6.246094 -0.351562 9.238281 2.023438 9.238281 C 3.785156 9.238281 4.3125 4.222656 5.632812 0.351562 L 9.503906 -8.097656 C 10.472656 -4.046875 11.085938 0 12.40625 3.871094 C 13.113281 5.984375 14.078125 10.03125 16.28125 11.085938 C 16.542969 11.175781 16.808594 11.265625 16.984375 11.265625 C 17.6875 11.265625 18.128906 10.648438 18.566406 10.121094 C 18.304688 8.976562 17.511719 8.183594 16.632812 5.984375 C 15.3125 2.464844 13.464844 -5.367188 13.113281 -9.0625 C 12.582031 -14.078125 12.496094 -13.992188 14.078125 -16.632812 C 14.519531 -17.335938 14.960938 -17.953125 15.398438 -18.65625 C 17.953125 -22.96875 21.472656 -25.871094 17.6875 -25.871094 C 14.785156 -25.871094 3.960938 -3.167969 3.433594 -2.640625 C 3.433594 -15.136719 5.015625 -32.472656 7.390625 -45.496094 C 8.097656 -49.453125 9.769531 -52.535156 6.335938 -52.535156 C 3.257812 -52.535156 1.40625 -33.613281 1.144531 -31.589844 C 0.441406 -23.757812 0 -15.136719 0 -6.6875 Z M 0 -6.6875 "/></g></g></g><g fill="#000000" fill-opacity="1"><g transform="translate(260.173621, 198.749987)"><g><path d="M 0 -8.886719 C 0 -5.71875 0.265625 -4.222656 3.519531 -4.222656 C 6.070312 -4.222656 8.800781 -12.496094 10.472656 -13.640625 C 10.472656 -9.855469 13.289062 -5.28125 17.6875 -5.28125 C 19.183594 -5.28125 20.855469 -5.808594 22.617188 -7.039062 L 25.253906 -9.152344 C 29.742188 -13.464844 29.214844 -15.664062 27.894531 -15.664062 C 27.367188 -15.664062 26.75 -15.398438 26.3125 -14.785156 C 25.078125 -13.464844 24.816406 -12.671875 23.144531 -11.175781 C 21.207031 -9.238281 19.359375 -8.183594 17.6875 -8.183594 C 15.839844 -8.183594 14.253906 -9.589844 13.550781 -12.757812 C 12.757812 -16.105469 14.253906 -20.0625 11.175781 -20.0625 C 10.03125 -20.0625 6.421875 -12.582031 4.664062 -9.855469 L 3.960938 -8.800781 C 3.519531 -8.273438 3.785156 -8.625 3.519531 -8.359375 C 3.519531 -11.265625 4.75 -14.609375 5.894531 -16.457031 C 8.449219 -20.855469 10.207031 -22.085938 11.527344 -22.085938 C 13.199219 -22.085938 14.253906 -20.0625 15.488281 -20.0625 C 17.777344 -20.0625 15.488281 -25.078125 11.351562 -25.078125 C 5.191406 -25.078125 0 -13.902344 0 -8.886719 Z M 0 -8.886719 "/></g></g></g><g fill="#000000" fill-opacity="1"><g transform="translate(145.305976, 227.845865)"><g><path d="M 1.5 -2.890625 L 1.609375 -3.046875 L 3.53125 -5.09375 L 4.578125 -5.09375 L 2.484375 -2.875 L 4.65625 0 L 3.625 0 L 1.890625 -2.359375 L 1.53125 -2 L 1.53125 0 L 0.703125 0 L 0.703125 -5.09375 L 1.53125 -5.09375 L 1.53125 -3.140625 Z M 1.5 -2.890625 "/></g></g></g><g fill="#000000" fill-opacity="1"><g transform="translate(154.329034, 227.845865)"><g><path d="M 3.3125 -1.203125 L 1.46875 -1.203125 L 0.96875 0 L 0.171875 0 L 2.421875 -5.3125 L 2.46875 -5.3125 L 4.71875 0 L 3.78125 0 Z M 3.046875 -1.890625 L 2.40625 -3.5 L 1.75 -1.890625 Z M 3.046875 -1.890625 "/></g></g></g><g fill="#000000" fill-opacity="1"><g transform="translate(163.422097, 227.845865)"><g><path d="M 3.75 -5.09375 L 3.75 -4.3125 L 2.421875 -4.3125 L 2.421875 0 L 1.609375 0 L 1.609375 -4.3125 L 0.34375 -4.3125 L 0.34375 -5.09375 Z M 3.75 -5.09375 "/></g></g></g><g fill="#000000" fill-opacity="1"><g transform="translate(171.70315, 227.845865)"><g><path d="M 4.84375 0 L 4.03125 0 L 4.03125 -2.171875 L 1.515625 -2.171875 L 1.515625 0 L 0.703125 0 L 0.703125 -5.09375 L 1.515625 -5.09375 L 1.515625 -2.953125 L 4.03125 -2.953125 L 4.03125 -5.09375 L 4.84375 -5.09375 Z M 4.84375 0 "/></g></g></g><g fill="#000000" fill-opacity="1"><g transform="translate(181.447224, 227.845865)"><g><path d="M 3.484375 0 L 2.34375 -1.765625 L 1.515625 -1.765625 L 1.515625 0 L 0.703125 0 L 0.703125 -5.09375 L 2.140625 -5.09375 C 2.703125 -5.09375 3.15625 -4.945312 3.5 -4.65625 C 3.84375 -4.375 4.015625 -3.972656 4.015625 -3.453125 C 4.015625 -3.140625 3.945312 -2.847656 3.8125 -2.578125 C 3.6875 -2.316406 3.476562 -2.113281 3.1875 -1.96875 L 4.4375 0 Z M 1.515625 -2.5625 L 2.25 -2.5625 C 2.570312 -2.5625 2.804688 -2.648438 2.953125 -2.828125 C 3.097656 -3.003906 3.171875 -3.207031 3.171875 -3.4375 C 3.171875 -3.5625 3.144531 -3.691406 3.09375 -3.828125 C 3.039062 -3.960938 2.945312 -4.078125 2.8125 -4.171875 C 2.675781 -4.265625 2.5 -4.3125 2.28125 -4.3125 L 1.515625 -4.3125 Z M 1.515625 -2.5625 "/></g></g></g><g fill="#000000" fill-opacity="1"><g transform="translate(190.337283, 227.845865)"><g><path d="M 1.515625 -5.09375 L 1.515625 0 L 0.703125 0 L 0.703125 -5.09375 Z M 1.515625 -5.09375 "/></g></g></g><g fill="#000000" fill-opacity="1"><g transform="translate(196.75632, 227.845865)"><g><path d="M 3.3125 -1.203125 L 1.46875 -1.203125 L 0.96875 0 L 0.171875 0 L 2.421875 -5.3125 L 2.46875 -5.3125 L 4.71875 0 L 3.78125 0 Z M 3.046875 -1.890625 L 2.40625 -3.5 L 1.75 -1.890625 Z M 3.046875 -1.890625 "/></g></g></g><g fill="#000000" fill-opacity="1"><g transform="translate(205.849382, 227.845865)"><g><path d="M 3.484375 0 L 2.34375 -1.765625 L 1.515625 -1.765625 L 1.515625 0 L 0.703125 0 L 0.703125 -5.09375 L 2.140625 -5.09375 C 2.703125 -5.09375 3.15625 -4.945312 3.5 -4.65625 C 3.84375 -4.375 4.015625 -3.972656 4.015625 -3.453125 C 4.015625 -3.140625 3.945312 -2.847656 3.8125 -2.578125 C 3.6875 -2.316406 3.476562 -2.113281 3.1875 -1.96875 L 4.4375 0 Z M 1.515625 -2.5625 L 2.25 -2.5625 C 2.570312 -2.5625 2.804688 -2.648438 2.953125 -2.828125 C 3.097656 -3.003906 3.171875 -3.207031 3.171875 -3.4375 C 3.171875 -3.5625 3.144531 -3.691406 3.09375 -3.828125 C 3.039062 -3.960938 2.945312 -4.078125 2.8125 -4.171875 C 2.675781 -4.265625 2.5 -4.3125 2.28125 -4.3125 L 1.515625 -4.3125 Z M 1.515625 -2.5625 "/></g></g></g><g fill="#000000" fill-opacity="1"><g transform="translate(214.739439, 227.845865)"><g><path d="M 3.3125 -1.203125 L 1.46875 -1.203125 L 0.96875 0 L 0.171875 0 L 2.421875 -5.3125 L 2.46875 -5.3125 L 4.71875 0 L 3.78125 0 Z M 3.046875 -1.890625 L 2.40625 -3.5 L 1.75 -1.890625 Z M 3.046875 -1.890625 "/></g></g></g><g fill="#000000" fill-opacity="1"><g transform="translate(223.832501, 227.845865)"><g><path d="M 4.484375 -0.40625 C 4.328125 -0.289062 4.117188 -0.179688 3.859375 -0.078125 C 3.597656 0.015625 3.3125 0.0625 3 0.0625 C 2.46875 0.0625 2.003906 -0.0507812 1.609375 -0.28125 C 1.210938 -0.519531 0.910156 -0.832031 0.703125 -1.21875 C 0.492188 -1.613281 0.390625 -2.039062 0.390625 -2.5 C 0.390625 -3.007812 0.492188 -3.460938 0.703125 -3.859375 C 0.910156 -4.265625 1.203125 -4.582031 1.578125 -4.8125 C 1.960938 -5.039062 2.398438 -5.15625 2.890625 -5.15625 C 3.191406 -5.15625 3.46875 -5.113281 3.71875 -5.03125 C 3.976562 -4.945312 4.203125 -4.847656 4.390625 -4.734375 L 4.078125 -3.96875 C 3.691406 -4.238281 3.304688 -4.375 2.921875 -4.375 C 2.617188 -4.375 2.335938 -4.289062 2.078125 -4.125 C 1.816406 -3.96875 1.609375 -3.75 1.453125 -3.46875 C 1.304688 -3.1875 1.234375 -2.882812 1.234375 -2.5625 C 1.234375 -2.207031 1.300781 -1.890625 1.4375 -1.609375 C 1.582031 -1.335938 1.785156 -1.125 2.046875 -0.96875 C 2.316406 -0.8125 2.625 -0.734375 2.96875 -0.734375 C 3.21875 -0.734375 3.441406 -0.769531 3.640625 -0.84375 C 3.835938 -0.914062 4.003906 -1.007812 4.140625 -1.125 Z M 4.484375 -0.40625 "/></g></g></g><g fill="#000000" fill-opacity="1"><g transform="translate(232.897561, 227.845865)"><g><path d="M 4.84375 0 L 4.03125 0 L 4.03125 -2.171875 L 1.515625 -2.171875 L 1.515625 0 L 0.703125 0 L 0.703125 -5.09375 L 1.515625 -5.09375 L 1.515625 -2.953125 L 4.03125 -2.953125 L 4.03125 -5.09375 L 4.84375 -5.09375 Z M 4.84375 0 "/></g></g></g><g fill="#000000" fill-opacity="1"><g transform="translate(242.641632, 227.845865)"><g><path d="M 4.484375 -0.40625 C 4.328125 -0.289062 4.117188 -0.179688 3.859375 -0.078125 C 3.597656 0.015625 3.3125 0.0625 3 0.0625 C 2.46875 0.0625 2.003906 -0.0507812 1.609375 -0.28125 C 1.210938 -0.519531 0.910156 -0.832031 0.703125 -1.21875 C 0.492188 -1.613281 0.390625 -2.039062 0.390625 -2.5 C 0.390625 -3.007812 0.492188 -3.460938 0.703125 -3.859375 C 0.910156 -4.265625 1.203125 -4.582031 1.578125 -4.8125 C 1.960938 -5.039062 2.398438 -5.15625 2.890625 -5.15625 C 3.191406 -5.15625 3.46875 -5.113281 3.71875 -5.03125 C 3.976562 -4.945312 4.203125 -4.847656 4.390625 -4.734375 L 4.078125 -3.96875 C 3.691406 -4.238281 3.304688 -4.375 2.921875 -4.375 C 2.617188 -4.375 2.335938 -4.289062 2.078125 -4.125 C 1.816406 -3.96875 1.609375 -3.75 1.453125 -3.46875 C 1.304688 -3.1875 1.234375 -2.882812 1.234375 -2.5625 C 1.234375 -2.207031 1.300781 -1.890625 1.4375 -1.609375 C 1.582031 -1.335938 1.785156 -1.125 2.046875 -0.96875 C 2.316406 -0.8125 2.625 -0.734375 2.96875 -0.734375 C 3.21875 -0.734375 3.441406 -0.769531 3.640625 -0.84375 C 3.835938 -0.914062 4.003906 -1.007812 4.140625 -1.125 Z M 4.484375 -0.40625 "/></g></g></g><g fill="#000000" fill-opacity="1"><g transform="translate(251.706692, 227.845865)"><g><path d="M 4.84375 0 L 4.03125 0 L 4.03125 -2.171875 L 1.515625 -2.171875 L 1.515625 0 L 0.703125 0 L 0.703125 -5.09375 L 1.515625 -5.09375 L 1.515625 -2.953125 L 4.03125 -2.953125 L 4.03125 -5.09375 L 4.84375 -5.09375 Z M 4.84375 0 "/></g></g></g><g fill="#000000" fill-opacity="1"><g transform="translate(261.450763, 227.845865)"><g><path d="M 1.515625 -5.09375 L 1.515625 0 L 0.703125 0 L 0.703125 -5.09375 Z M 1.515625 -5.09375 "/></g></g></g><g fill="#000000" fill-opacity="1"><g transform="translate(267.869799, 227.845865)"><g><path d="M 4.078125 -5.09375 L 4.078125 -4.3125 L 1.515625 -4.3125 L 1.515625 -2.953125 L 3.796875 -2.953125 L 3.796875 -2.171875 L 1.515625 -2.171875 L 1.515625 -0.78125 L 4.171875 -0.78125 L 4.171875 0 L 0.703125 0 L 0.703125 -5.09375 Z M 4.078125 -5.09375 "/></g></g></g></svg>